<mxfile host="app.diagrams.net" modified="2023-04-28T12:45:46.640Z" agent="Mozilla/5.0 (Windows NT 10.0; Win64; x64) AppleWebKit/537.36 (KHTML, like Gecko) Chrome/110.0.0.0 Safari/537.36" version="21.2.3" etag="qC3_PBns3SpQqeB2efp8" type="github">
  <diagram name="PÃ¡gina-1" id="PkF5OxhaUaf6Ubhl1BI9">
    <mxGraphModel>
      <root>
        <mxCell id="0" />
        <mxCell id="1" parent="0" />
      </root>
    </mxGraphModel>
  </diagram>
</mxfile>
